<?xml version="1.0" standalone="no"?>
<!DOCTYPE svg PUBLIC "-//W3C//DTD SVG 20010904//EN"
 "http://www.w3.org/TR/2001/REC-SVG-20010904/DTD/svg10.dtd">
<svg version="1.0" xmlns="http://www.w3.org/2000/svg"
 width="500.000000pt" height="500.000000pt" viewBox="0 0 500.000000 500.000000"
 preserveAspectRatio="xMidYMid meet">

<g transform="translate(0.000000,500.000000) scale(0.100000,-0.100000)"
fill="#000000" stroke="none">
<path d="M2695 3069 c6 -9 2 -11 -13 -7 -12 4 -20 2 -17 -2 3 -5 -1 -11 -7
-13 -10 -4 -10 -6 0 -6 7 -1 11 -5 7 -10 -3 -5 4 -12 14 -16 12 -4 18 -12 14
-20 -4 -13 -1 -13 21 -1 27 14 81 9 136 -12 29 -11 64 -47 59 -60 -8 -20 -136
-115 -180 -134 -29 -12 -53 -31 -65 -52 -29 -49 -116 -124 -164 -141 -23 -8
-70 -33 -104 -56 -44 -30 -68 -39 -86 -35 -24 4 -27 1 -43 -61 -12 -48 -14
-70 -7 -77 8 -8 14 -6 21 7 37 65 114 119 225 157 32 11 100 43 151 71 l95 51
65 -28 65 -28 -88 -85 -88 -84 30 -24 c41 -33 93 -56 111 -49 12 5 8 12 -17
36 -49 46 -42 57 103 157 26 18 47 40 47 50 0 10 -25 38 -55 62 -84 67 -84 68
-32 90 85 36 109 37 158 1 61 -44 85 -38 132 30 21 30 45 65 53 77 13 18 13
26 3 44 -11 22 -12 22 -26 3 -8 -10 -20 -18 -27 -16 -9 1 -12 -6 -8 -23 5 -28
-18 -69 -49 -85 -16 -9 -25 -8 -40 5 -18 17 -18 18 9 46 15 16 33 29 39 29 21
0 15 35 -9 57 -32 29 -59 35 -88 20 -23 -12 -30 -9 -88 36 -54 41 -73 50 -137
61 -41 7 -86 21 -101 30 -14 10 -23 12 -19 5z"/>
<path d="M1578 2523 c-2 -5 -2 -113 0 -240 l3 -233 135 0 134 0 0 44 c0 52
-10 58 -93 56 -82 -3 -78 -5 -75 48 l3 47 78 3 77 3 0 44 0 45 -80 0 -80 0 0
50 0 49 83 3 82 3 3 43 3 42 -135 0 c-74 0 -136 -3 -138 -7z"/>
<path d="M3160 2406 l0 -55 -64 2 c-56 2 -68 -1 -90 -22 -26 -24 -26 -24 -26
-3 0 20 -5 22 -50 22 l-50 0 0 -151 0 -150 48 3 47 3 3 90 c4 116 10 124 107
124 l73 0 4 -90 c3 -81 6 -93 27 -110 25 -21 125 -27 136 -9 4 6 15 6 31 0 38
-15 141 -12 173 5 34 17 53 63 42 102 -8 30 -62 73 -91 73 -22 0 -44 26 -35
41 5 7 23 9 51 4 40 -6 45 -4 56 20 17 38 -1 50 -77 50 -72 0 -113 -22 -130
-69 -14 -39 10 -75 70 -108 28 -15 50 -33 50 -40 0 -19 -39 -21 -74 -4 -29 15
-30 15 -49 -11 -19 -27 -19 -27 -26 -5 -4 13 -13 22 -19 21 -34 -4 -37 2 -37
65 0 63 1 65 28 68 24 3 27 7 27 38 0 31 -3 35 -27 38 -25 3 -27 7 -30 55 l-3
52 -47 3 -48 3 0 -55z"/>
<path d="M1955 2348 c-50 -18 -65 -37 -65 -83 0 -47 9 -57 73 -89 73 -37 44
-63 -43 -41 -21 5 -28 1 -42 -25 l-17 -30 31 -16 c20 -10 55 -16 96 -16 76 1
111 21 124 71 13 49 -8 82 -72 113 -70 34 -72 53 -7 53 36 0 52 5 63 19 21 29
18 34 -23 45 -46 13 -79 13 -118 -1z"/>
<path d="M2286 2345 c-21 -11 -32 -12 -42 -4 -7 5 -32 9 -56 7 l-43 -3 -3
-200 c-1 -110 0 -210 3 -222 5 -20 12 -23 49 -23 42 0 44 1 50 38 3 20 6 59 6
86 0 42 2 47 18 40 9 -4 42 -9 72 -11 70 -5 113 20 140 80 11 23 20 34 20 25
0 -22 46 -75 81 -93 16 -9 56 -15 96 -15 78 0 121 20 154 72 29 47 23 137 -12
174 -55 60 -149 79 -224 45 -44 -20 -95 -73 -95 -99 0 -9 -10 4 -22 28 -13 24
-35 52 -49 63 -36 26 -106 32 -143 12z m79 -95 c26 -29 24 -79 -4 -102 -67
-54 -154 28 -101 95 27 34 78 37 105 7z m353 4 c16 -11 22 -25 22 -54 0 -29
-6 -43 -22 -54 -48 -34 -111 -4 -111 52 0 62 60 92 111 56z"/>
</g>
</svg>
